<svg xmlns="http://www.w3.org/2000/svg" viewBox="0 0 300 300">
  <defs>
    <radialGradient id="bg" cx="50%" cy="30%" r="80%">
      <stop offset="0%" stop-color="#2a1a2e"/>
      <stop offset="100%" stop-color="#0b0b0f"/>
    </radialGradient>
    <linearGradient id="skin" x1="0%" y1="0%" x2="0%" y2="100%">
      <stop offset="0%" stop-color="#caa27a"/>
      <stop offset="100%" stop-color="#8f6742"/>
    </linearGradient>
    <linearGradient id="accent" x1="0%" y1="0%" x2="100%" y2="100%">
      <stop offset="0%" stop-color="#ff9ad6"/>
      <stop offset="100%" stop-color="#b0298f"/>
    </linearGradient>
  </defs>
  <rect width="300" height="300" fill="url(#bg)"/>
  <circle cx="150" cy="115" r="70" fill="url(#skin)"/>
  <path d="M82 100 C 90 55, 125 35, 150 35 C 185 35, 218 60, 216 105 C 195 85, 205 105, 150 65 C 110 95, 105 80, 82 100 Z" fill="#0f0d0b"/>
  <path d="M105 180 C 100 200, 100 220, 108 235" fill="none" stroke="#0f0d0b" stroke-width="10" stroke-linecap="round"/>
  <path d="M195 180 C 200 200, 200 220, 192 235" fill="none" stroke="#0f0d0b" stroke-width="10" stroke-linecap="round"/>
  <path d="M40 300 C 40 220, 90 190, 150 190 C 210 190, 260 220, 260 300 Z" fill="url(#accent)" opacity="0.9"/>
  <circle cx="150" cy="150" r="95" fill="none" stroke="url(#accent)" stroke-width="3" opacity="0.5"/>
</svg>
