<svg xmlns="http://www.w3.org/2000/svg" viewBox="0 0 400 400">
  <defs>
    <radialGradient id="bg" cx="50%" cy="35%" r="75%">
      <stop offset="0%" stop-color="#2a2a32"/>
      <stop offset="100%" stop-color="#0b0b0f"/>
    </radialGradient>
    <linearGradient id="ink" x1="0%" y1="0%" x2="100%" y2="100%">
      <stop offset="0%" stop-color="#fff2d0"/>
      <stop offset="45%" stop-color="#e08a2a"/>
      <stop offset="100%" stop-color="#7a2a10"/>
    </linearGradient>
    <filter id="gloss" x="-20%" y="-20%" width="140%" height="140%">
      <feGaussianBlur stdDeviation="2" result="b"/>
      <feSpecularLighting in="b" surfaceScale="4" specularConstant="0.9" specularExponent="18" lighting-color="#fff" result="s">
        <fePointLight x="120" y="60" z="150"/>
      </feSpecularLighting>
      <feComposite in="s" in2="SourceAlpha" operator="in" result="s2"/>
      <feComposite in="SourceGraphic" in2="s2" operator="arithmetic" k1="0" k2="1" k3="1" k4="0"/>
    </filter>
  </defs>
  <rect width="400" height="400" fill="url(#bg)"/>
  <g filter="url(#gloss)" fill="none" stroke="url(#ink)" stroke-width="5" stroke-linecap="round" stroke-linejoin="round">
    <path d="M200 320 C 190 280, 200 250, 200 220"/>
    <path d="M200 220 C 150 210, 90 180, 70 120 C 120 130, 150 150, 175 180 C 165 150, 165 110, 190 80 C 200 115, 205 145, 210 170 C 230 140, 260 115, 300 105 C 285 140, 260 165, 235 185 C 270 180, 310 190, 335 220 C 300 225, 265 220, 235 210 C 220 213, 210 218, 200 220 Z"/>
    <path d="M200 250 C 180 265, 160 270, 145 260 M 200 250 C 220 265, 240 270, 255 260"/>
    <path d="M200 320 L 185 345 M 200 320 L 215 345"/>
  </g>
</svg>
