<svg xmlns="http://www.w3.org/2000/svg" viewBox="0 0 400 400">
  <defs>
    <radialGradient id="bg" cx="50%" cy="35%" r="75%">
      <stop offset="0%" stop-color="#2a2a32"/>
      <stop offset="100%" stop-color="#0b0b0f"/>
    </radialGradient>
    <linearGradient id="ink" x1="0%" y1="0%" x2="100%" y2="100%">
      <stop offset="0%" stop-color="#ffffff"/>
      <stop offset="50%" stop-color="#b8c4d0"/>
      <stop offset="100%" stop-color="#3a4552"/>
    </linearGradient>
    <filter id="gloss" x="-20%" y="-20%" width="140%" height="140%">
      <feGaussianBlur stdDeviation="2" result="b"/>
      <feSpecularLighting in="b" surfaceScale="4" specularConstant="0.9" specularExponent="18" lighting-color="#fff" result="s">
        <fePointLight x="120" y="60" z="150"/>
      </feSpecularLighting>
      <feComposite in="s" in2="SourceAlpha" operator="in" result="s2"/>
      <feComposite in="SourceGraphic" in2="s2" operator="arithmetic" k1="0" k2="1" k3="1" k4="0"/>
    </filter>
  </defs>
  <rect width="400" height="400" fill="url(#bg)"/>
  <g filter="url(#gloss)" fill="none" stroke="url(#ink)" stroke-width="6" stroke-linecap="round" stroke-linejoin="round">
    <path d="M130 180 C 130 110, 270 110, 270 180 C 270 220, 250 230, 250 260 L 240 280 L 220 260 L 200 285 L 180 260 L 160 280 L 150 260 C 150 230, 130 220, 130 180 Z"/>
    <circle cx="170" cy="185" r="22"/>
    <circle cx="230" cy="185" r="22"/>
    <path d="M195 205 L 188 225 L 212 225 L 205 205"/>
    <path d="M150 145 L 130 130"/>
    <path d="M250 145 L 270 130"/>
    <path d="M160 250 L 145 275"/>
    <path d="M240 250 L 255 275"/>
  </g>
</svg>
